<svg width="27" height="27" viewBox="0 0 27 27" fill="none" xmlns="http://www.w3.org/2000/svg">
<path d="M26.3566 26.137L18.782 18.2596C20.714 16.322 21.9109 13.6509 21.9109 10.705C21.9109 4.80195 17.109 0 11.206 0C5.30293 0 0.500977 4.80195 0.500977 10.705C0.500977 16.608 5.30293 21.41 11.206 21.41C13.7971 21.41 16.1751 20.4837 18.0286 18.9468L25.6215 26.8435C25.7214 26.948 25.855 27 25.989 27C26.1165 27 26.2434 26.9526 26.3423 26.8578C26.5452 26.6625 26.5513 26.3399 26.3566 26.137ZM1.5205 10.705C1.5205 5.36421 5.86519 1.01952 11.206 1.01952C16.5467 1.01952 20.8914 5.36421 20.8914 10.705C20.8914 16.0457 16.5467 20.3904 11.206 20.3904C5.86519 20.3904 1.5205 16.0457 1.5205 10.705Z" fill="black" fill-opacity="0.6"/>
</svg>
